<svg width="20" height="20" viewBox="0 0 20 20" fill="none" xmlns="http://www.w3.org/2000/svg">
<path d="M2.33673 12.8975C2.33673 12.8975 2.45506 14.3458 2.48256 14.8025C2.51923 15.415 2.7559 16.0991 3.1509 16.5741C3.7084 17.2475 4.36506 17.485 5.24173 17.4866C6.27256 17.4883 13.7684 17.4883 14.7992 17.4866C15.6759 17.485 16.3326 17.2475 16.8901 16.5741C17.2851 16.0991 17.5217 15.415 17.5592 14.8025C17.5859 14.3458 17.7042 12.8975 17.7042 12.8975" stroke="#3E3F93" stroke-width="1.5" stroke-linecap="round" stroke-linejoin="round"/>
<path d="M7.07996 4.44116V4.13199C7.07996 3.11533 7.90329 2.29199 8.91996 2.29199H11.0716C12.0875 2.29199 12.9116 3.11533 12.9116 4.13199L12.9125 4.44116" stroke="#3E3F93" stroke-width="1.5" stroke-linecap="round" stroke-linejoin="round"/>
<path d="M9.99583 13.8986V12.8203" stroke="#3E3F93" stroke-width="1.5" stroke-linecap="round" stroke-linejoin="round"/>
<path fill-rule="evenodd" clip-rule="evenodd" d="M2.29156 6.99072V9.87988C3.8899 10.934 5.8049 11.6724 7.90656 11.9649C8.15823 11.0474 8.98573 10.3749 9.99156 10.3749C10.9816 10.3749 11.8257 11.0474 12.0607 11.9732C14.1707 11.6807 16.0932 10.9424 17.6999 9.87988V6.99072C17.6999 5.57905 16.5641 4.44238 15.1524 4.44238H4.8474C3.43573 4.44238 2.29156 5.57905 2.29156 6.99072Z" stroke="#3E3F93" stroke-width="1.5" stroke-linecap="round" stroke-linejoin="round"/>
</svg>
